  <svg
          width="223"
          height="40"
          viewBox="0 0 223 40"
          fill="none"
          xmlns="http://www.w3.org/2000/svg"
        >
          <path
            d="M8.38016 34.56C7.39349 34.56 6.52682 34.48 5.78016 34.32C5.03349 34.16 4.38016 33.7733 3.82016 33.16C3.28682 32.5467 3.02016 31.6 3.02016 30.32C3.02016 28.5333 3.55349 26.1333 4.62016 23.12C5.71349 20.1067 7.14016 17.08 8.90016 14.04C7.56682 14.12 6.51349 14.32 5.74016 14.64C4.96682 14.96 4.46016 15.4533 4.22016 16.12C4.32682 16.12 4.43349 16.2533 4.54016 16.52C4.67349 16.7867 4.74016 17.0667 4.74016 17.36C4.74016 17.84 4.52682 18.2267 4.10016 18.52C3.67349 18.7867 3.14016 18.92 2.50016 18.92C1.75349 18.92 1.15349 18.72 0.700156 18.32C0.246823 17.92 0.0201563 17.3467 0.0201563 16.6C0.0201563 15.6933 0.366823 14.8667 1.06016 14.12C1.78016 13.3733 2.76682 12.7867 4.02016 12.36C5.27349 11.9067 6.66016 11.68 8.18016 11.68C8.74016 11.68 9.43349 11.72 10.2602 11.8C12.4468 8.33333 14.7535 5.50666 17.1802 3.32C19.6335 1.10666 21.9668 -2.38419e-06 24.1802 -2.38419e-06C25.4602 -2.38419e-06 26.5135 0.186664 27.3402 0.559998L21.0602 30H15.3002L18.3802 15.48C17.3935 15.0267 16.4868 14.6933 15.6602 14.48C14.8335 14.2667 13.9535 14.12 13.0202 14.04C11.5002 17.32 10.2468 20.68 9.26016 24.12C8.30016 27.5333 7.82016 30.2667 7.82016 32.32C7.82016 33.3333 8.00682 34.08 8.38016 34.56ZM21.0602 2.84C19.9135 3.45333 18.7135 4.6 17.4602 6.28C16.2335 7.93333 15.0335 9.94667 13.8602 12.32C15.7802 12.6933 17.4068 13.16 18.7402 13.72L21.0602 2.84ZM30.9389 30.24C29.6589 30.24 28.5789 30 27.6989 29.52C26.8189 29.0133 26.1656 28.3733 25.7389 27.6C25.3122 26.8 25.0989 25.9733 25.0989 25.12C25.0989 24.24 25.3122 23.48 25.7389 22.84C26.1389 22.1733 26.6322 21.6933 27.2189 21.4C28.2589 19.5333 29.1656 17.6533 29.9389 15.76C30.7122 13.84 31.4456 11.7733 32.1389 9.56L38.0589 8.76C38.1922 12.1733 38.4189 15.8667 38.7389 19.84C38.8722 21.44 38.9389 22.6 38.9389 23.32C38.9389 23.9333 38.8856 24.44 38.7789 24.84C40.0322 24.12 40.9922 23.4533 41.6589 22.84H43.3389C41.6322 24.8133 39.5922 26.48 37.2189 27.84C36.4456 28.6667 35.4856 29.28 34.3389 29.68C33.2189 30.0533 32.0856 30.24 30.9389 30.24ZM29.6589 27.08C30.6456 27.08 31.4722 26.7867 32.1389 26.2C32.8056 25.6133 33.1389 24.6667 33.1389 23.36C33.1389 22.56 33.0589 21.44 32.8989 20C32.6322 16.96 32.4589 14.92 32.3789 13.88C31.7389 15.9867 30.6589 18.5067 29.1389 21.44C29.7522 21.76 30.0589 22.2267 30.0589 22.84C30.0589 23.3467 29.8856 23.8 29.5389 24.2C29.2189 24.6 28.8056 24.8 28.2989 24.8C27.7389 24.8 27.3789 24.6267 27.2189 24.28C27.2189 25.24 27.4056 25.9467 27.7789 26.4C28.1789 26.8533 28.8056 27.08 29.6589 27.08ZM45.6123 30.24C44.3323 30.24 43.2923 29.84 42.4923 29.04C41.719 28.24 41.3323 27.04 41.3323 25.44C41.3323 24.7733 41.439 23.9067 41.6523 22.84L44.0523 11.6H42.7323L43.0523 10H44.3723L45.5723 4.48L51.4923 3.68L50.1323 10H52.5323L52.2123 11.6H49.8123L47.2523 23.6C47.1457 24 47.0923 24.4267 47.0923 24.88C47.0923 25.4133 47.2123 25.8 47.4523 26.04C47.719 26.2533 48.1457 26.36 48.7323 26.36C49.5057 26.36 50.2257 26.04 50.8923 25.4C51.559 24.7333 52.039 23.88 52.3323 22.84H54.0123C53.0257 25.72 51.759 27.68 50.2123 28.72C48.6657 29.7333 47.1323 30.24 45.6123 30.24ZM55.0364 10H60.7964L60.2764 12.48C61.1831 11.68 61.9964 11.0667 62.7164 10.64C63.4631 10.2133 64.2631 10 65.1164 10C65.9697 10 66.6364 10.2933 67.1164 10.88C67.6231 11.4667 67.8764 12.1733 67.8764 13C67.8764 13.7733 67.6231 14.4533 67.1164 15.04C66.6097 15.6267 65.9031 15.92 64.9964 15.92C64.4097 15.92 64.0097 15.7867 63.7964 15.52C63.6097 15.2267 63.4631 14.8133 63.3564 14.28C63.2764 13.9333 63.1964 13.68 63.1164 13.52C63.0364 13.36 62.8897 13.28 62.6764 13.28C62.1164 13.28 61.6364 13.4 61.2364 13.64C60.8631 13.8533 60.3697 14.24 59.7564 14.8L56.5564 30H50.7964L55.0364 10ZM72.1555 30.24C70.6355 30.24 69.3688 29.72 68.3555 28.68C67.3421 27.64 66.8355 26.0133 66.8355 23.8C66.8355 21.8267 67.2221 19.76 67.9955 17.6C68.7955 15.4133 69.9688 13.5733 71.5155 12.08C73.0888 10.56 74.9555 9.8 77.1155 9.8C78.2088 9.8 79.0221 9.98667 79.5555 10.36C80.0888 10.7333 80.3555 11.2267 80.3555 11.84V12.12L80.7955 10H86.5555L83.6755 23.6C83.5688 24 83.5155 24.4267 83.5155 24.88C83.5155 25.4133 83.6355 25.8 83.8755 26.04C84.1421 26.2533 84.5688 26.36 85.1555 26.36C85.5288 26.36 85.8221 26.3067 86.0355 26.2C85.4488 27.6933 84.8888 28.7467 84.3555 29.36C83.8221 29.9467 83.0488 30.24 82.0355 30.24C80.9421 30.24 80.0488 29.92 79.3555 29.28C78.6888 28.6133 78.2755 27.6933 78.1155 26.52C76.4888 29 74.5021 30.24 72.1555 30.24ZM74.7555 26.36C75.4221 26.36 76.0755 26.0533 76.7155 25.44C77.3821 24.8 77.8355 23.9333 78.0755 22.84L79.9955 13.8C79.9955 13.4533 79.8621 13.12 79.5955 12.8C79.3288 12.4533 78.9155 12.28 78.3555 12.28C77.2888 12.28 76.3288 12.9067 75.4755 14.16C74.6221 15.3867 73.9555 16.88 73.4755 18.64C72.9955 20.3733 72.7555 21.9067 72.7555 23.24C72.7555 24.5733 72.9421 25.4267 73.3155 25.8C73.7155 26.1733 74.1955 26.36 74.7555 26.36ZM108.387 40C107.187 40 106.001 39.6533 104.827 38.96C103.681 38.2933 102.214 37.2533 100.427 35.84C99.094 34.7733 97.9473 33.9067 96.9873 33.24C96.054 32.6 95.0273 32.0533 93.9073 31.6C92.814 31.1467 91.694 30.92 90.5473 30.92C90.1473 30.92 89.8407 30.9333 89.6273 30.96L95.5873 3.24C93.8007 3.96 92.414 5.06667 91.4273 6.56C90.4673 8.02667 89.9873 9.82667 89.9873 11.96C89.9873 12.9467 90.0807 13.64 90.2673 14.04C90.454 14.4133 90.5473 14.6267 90.5473 14.68C89.1073 14.68 88.0273 14.3867 87.3073 13.8C86.614 13.1867 86.2673 12.1867 86.2673 10.8C86.2673 9.09333 86.9607 7.44 88.3473 5.84C89.7607 4.21333 91.5607 2.90667 93.7473 1.92C95.934 0.906666 98.1207 0.4 100.307 0.4C100.681 0.4 101.214 0.426666 101.907 0.479999L95.7473 29.2C96.494 29.3867 97.254 29.6533 98.0273 30C98.8273 30.3733 99.7873 30.8667 100.907 31.48C102.641 32.4133 104.121 33.12 105.347 33.6C106.574 34.1067 107.854 34.36 109.187 34.36C110.387 34.36 111.507 34.1467 112.547 33.72C112.334 35.6667 111.854 37.2 111.107 38.32C110.387 39.44 109.481 40 108.387 40ZM107.424 40C106.144 40 105.077 39.6667 104.224 39C103.37 38.3333 102.944 37.3733 102.944 36.12C102.944 34.6 103.557 33.3733 104.784 32.44C106.01 31.5333 107.57 30.7733 109.464 30.16L109.944 28C109.17 28.8533 108.384 29.44 107.584 29.76C106.784 30.08 105.97 30.24 105.144 30.24C103.864 30.24 102.824 29.84 102.024 29.04C101.25 28.24 100.864 27.04 100.864 25.44C100.864 24.7733 100.97 23.9067 101.184 22.84L103.904 10H109.664L106.784 23.6C106.704 23.92 106.664 24.2533 106.664 24.6C106.664 25.7733 107.064 26.36 107.864 26.36C108.557 26.36 109.17 26.0667 109.704 25.48C110.237 24.8667 110.664 24.0667 110.984 23.08L113.784 10H119.544L115.584 28.56C116.864 28.1333 117.89 27.4933 118.664 26.64C119.437 25.7867 120.09 24.52 120.624 22.84H122.304C121.584 25.2133 120.61 26.96 119.384 28.08C118.157 29.1733 116.77 29.92 115.224 30.32L114.624 33.2C114.09 35.7867 113.17 37.56 111.864 38.52C110.557 39.5067 109.077 40 107.424 40ZM106.504 36.88C106.957 36.88 107.397 36.5733 107.824 35.96C108.25 35.3467 108.584 34.4667 108.824 33.32L109.064 32.16C106.45 33.12 105.144 34.2533 105.144 35.56C105.144 35.9067 105.264 36.2133 105.504 36.48C105.744 36.7467 106.077 36.88 106.504 36.88ZM124.597 30.24C123.317 30.24 122.277 29.84 121.477 29.04C120.703 28.24 120.317 27.04 120.317 25.44C120.317 24.7733 120.423 23.9067 120.637 22.84L123.037 11.6H121.717L122.037 10H123.357L124.557 4.48L130.477 3.68L129.117 10H131.517L131.197 11.6H128.797L126.237 23.6C126.13 24 126.077 24.4267 126.077 24.88C126.077 25.4133 126.197 25.8 126.437 26.04C126.703 26.2533 127.13 26.36 127.717 26.36C128.49 26.36 129.21 26.04 129.877 25.4C130.543 24.7333 131.023 23.88 131.317 22.84H132.997C132.01 25.72 130.743 27.68 129.197 28.72C127.65 29.7333 126.117 30.24 124.597 30.24ZM136.941 30.24C134.994 30.24 133.474 29.7333 132.381 28.72C131.287 27.68 130.741 26.0667 130.741 23.88C130.741 22.04 131.101 20.0133 131.821 17.8C132.541 15.5867 133.714 13.68 135.341 12.08C136.967 10.4533 139.034 9.64 141.541 9.64C144.474 9.64 145.941 10.92 145.941 13.48C145.941 14.9733 145.514 16.3467 144.661 17.6C143.807 18.8533 142.674 19.8667 141.261 20.64C139.847 21.3867 138.341 21.8133 136.741 21.92C136.687 22.5067 136.661 22.9067 136.661 23.12C136.661 25.3333 137.487 26.44 139.141 26.44C139.887 26.44 140.687 26.24 141.541 25.84C142.394 25.44 143.167 24.9333 143.861 24.32C143.141 28.2667 140.834 30.24 136.941 30.24ZM137.021 20C138.034 19.9733 138.981 19.64 139.861 19C140.767 18.36 141.487 17.5467 142.021 16.56C142.581 15.5467 142.861 14.4933 142.861 13.4C142.861 12.3067 142.527 11.76 141.861 11.76C140.927 11.76 139.994 12.6133 139.061 14.32C138.154 16 137.474 17.8933 137.021 20Z"
            fill="#4DB02A"
          />
          <path
            d="M155.469 30.64C152.456 30.64 150.243 29.88 148.829 28.36C147.416 26.84 146.709 24.32 146.709 20.8C146.709 18 147.176 14.9867 148.109 11.76C149.069 8.53333 150.589 5.77333 152.669 3.48C154.776 1.16 157.443 -2.38419e-06 160.669 -2.38419e-06C162.669 -2.38419e-06 164.283 0.439998 165.509 1.32C166.736 2.2 167.349 3.54667 167.349 5.36C167.349 6.50667 167.123 7.41333 166.669 8.08C166.216 8.72 165.509 9.04 164.549 9.04C163.589 9.04 162.829 8.69333 162.269 8C162.749 7.76 163.176 7.28 163.549 6.56C163.923 5.84 164.109 5.09333 164.109 4.32C164.109 3.6 163.909 3.01333 163.509 2.56C163.136 2.10667 162.523 1.88 161.669 1.88C160.256 1.88 158.909 2.85333 157.629 4.8C156.349 6.72 155.309 9.14667 154.509 12.08C153.736 15.0133 153.349 17.84 153.349 20.56C153.349 22.5867 153.696 24.1333 154.389 25.2C155.083 26.2667 156.336 26.8 158.149 26.8C159.723 26.8 161.176 26.4533 162.509 25.76C163.843 25.0667 164.989 24.08 165.949 22.8L166.869 23.2C166.203 24.88 165.216 26.28 163.909 27.4C162.603 28.52 161.203 29.3467 159.709 29.88C158.216 30.3867 156.803 30.64 155.469 30.64ZM183.272 30.68C181.192 30.68 180.152 29.7867 180.152 28C180.152 27.4133 180.232 26.7467 180.392 26C180.579 25.2267 180.832 24.24 181.152 23.04C181.525 21.7867 181.805 20.72 181.992 19.84C182.179 18.96 182.272 18.1733 182.272 17.48C182.272 15.6667 181.472 14.76 179.872 14.76C179.445 14.76 179.005 14.8133 178.552 14.92L175.352 30H169.592L175.032 4.56L180.952 3.76L178.992 13H179.312C180.352 13 181.312 12.64 182.192 11.92C183.072 11.2 183.752 10.3067 184.232 9.24C184.739 8.14667 184.992 7.08 184.992 6.04C184.992 4.81333 184.619 3.81333 183.872 3.04C183.152 2.24 182.059 1.84 180.592 1.84C178.432 1.84 176.539 2.22667 174.912 3C173.285 3.77333 172.019 4.89333 171.112 6.36C170.232 7.82667 169.792 9.56 169.792 11.56C169.792 12.5467 169.885 13.24 170.072 13.64C170.259 14.0133 170.352 14.2267 170.352 14.28C168.912 14.28 167.832 13.9867 167.112 13.4C166.419 12.7867 166.072 11.7867 166.072 10.4C166.072 8.69333 166.765 7.04 168.152 5.44C169.565 3.81333 171.365 2.50667 173.552 1.52C175.739 0.506665 177.925 -2.38419e-06 180.112 -2.38419e-06C182.112 -2.38419e-06 183.792 0.293331 185.152 0.879998C186.512 1.46667 187.525 2.25333 188.192 3.24C188.859 4.2 189.192 5.25333 189.192 6.4C189.192 7.65333 188.805 8.90667 188.032 10.16C187.259 11.4133 186.205 12.44 184.872 13.24C185.885 13.5333 186.592 14.0267 186.992 14.72C187.419 15.3867 187.632 16.2267 187.632 17.24C187.632 18.0133 187.539 18.84 187.352 19.72C187.165 20.5733 186.899 21.64 186.552 22.92C186.339 23.7467 186.139 24.56 185.952 25.36C185.765 26.16 185.672 26.8267 185.672 27.36C185.672 27.9733 185.805 28.52 186.072 29C186.365 29.48 186.752 29.8133 187.232 30C185.605 30.4533 184.285 30.68 183.272 30.68ZM202.695 2.52C200.669 3.18666 199.095 4.29333 197.975 5.84C196.882 7.36 196.335 9.25333 196.335 11.52C196.335 12.5333 196.429 13.2267 196.615 13.6C196.802 13.9733 196.895 14.2 196.895 14.28C194.042 14.28 192.615 13.0667 192.615 10.64C192.615 8.98667 193.242 7.33333 194.495 5.68C195.775 4 197.402 2.64 199.375 1.6C201.375 0.533331 203.362 -2.38419e-06 205.335 -2.38419e-06C206.322 -2.38419e-06 207.335 0.186664 208.375 0.559998L207.455 21.64L216.255 0.559998H222.015L217.815 30H212.055L214.615 12.04L207.095 30H201.615L202.415 11.96L195.735 30H192.535L202.695 2.52Z"
            fill="#BFBFBF"
          />
        </svg>